<svg width="200" height="200" viewBox="0 0 200 200" fill="none" xmlns="http://www.w3.org/2000/svg">
	<g clip-path="url(#clip0_25_85)">
		<path
			d="M83.3838 198.618C81.7858 198.349 80.199 198.046 78.6276 197.702C80.1994 198.045 81.7854 198.35 83.3838 198.618Z"
			fill="#FFA055" />
		<path
			d="M85.3459 198.928C84.922 198.865 84.4994 198.8 84.0775 198.732C84.5002 198.8 84.9224 198.866 85.3459 198.928Z"
			fill="#FFA055" />
		<path
			d="M121.372 197.702C119.801 198.046 118.214 198.349 116.616 198.618C118.215 198.35 119.801 198.045 121.372 197.702Z"
			fill="#FFA055" />
		<path
			d="M95.263 199.885C95.0736 199.876 94.8841 199.869 94.6951 199.859C94.8845 199.869 95.0736 199.877 95.263 199.885Z"
			fill="#FFA055" />
		<path
			d="M92.5292 199.722C92.2788 199.703 92.0291 199.681 91.7795 199.661C92.0291 199.682 92.2788 199.704 92.5292 199.722Z"
			fill="#FFA055" />
		<path
			d="M115.922 198.733C115.5 198.801 115.078 198.866 114.654 198.928C115.078 198.866 115.5 198.8 115.922 198.733Z"
			fill="#FFA055" />
		<path
			d="M87.8971 199.268C87.392 199.207 86.8881 199.141 86.3854 199.073C86.8881 199.141 87.3916 199.208 87.8971 199.268Z"
			fill="#FFA055" />
		<path
			d="M105.305 199.859C105.116 199.869 104.926 199.876 104.737 199.885C104.926 199.877 105.116 199.869 105.305 199.859Z"
			fill="#FFA055" />
		<path
			d="M69.6428 195.294C69.4233 195.224 69.2053 195.15 68.9862 195.079C68.7619 195.005 68.5373 194.933 68.3143 194.859C67.5631 194.609 66.8143 194.354 66.0717 194.086V194.076C59.2542 191.611 52.7792 188.431 46.7401 184.622L49.2889 146.389C49.7108 140.062 54.2538 134.77 60.444 133.394L75.9221 129.955L75.0002 128.572L82.1428 125V117.857L73.2655 114.306C67.8416 112.137 64.2854 106.884 64.2854 101.042V92.8572C60.3405 92.8572 57.1424 89.6592 57.1424 85.7143C57.1424 83.1748 58.4713 80.951 60.4678 79.6842L58.7127 62.1354C58.1913 56.9225 60.5323 52.1386 64.3995 49.2538C64.8475 45.278 66.6936 41.7394 70.535 38.9878C80.5049 31.8449 142.856 28.5714 142.856 28.5714L138.431 49.8452C138.282 50.3851 138.101 50.9022 137.905 51.4097C140.352 54.2573 141.693 58.0651 141.286 62.1358L139.531 79.6846C141.527 80.951 142.856 83.1752 142.856 85.7147C142.856 89.6592 139.659 92.8576 135.713 92.8576V101.043C135.713 106.884 132.157 112.137 126.733 114.306L117.856 117.857V125L124.999 128.571L124.077 129.954L139.556 133.393C145.746 134.769 150.289 140.061 150.711 146.388L153.259 184.62C147.22 188.43 140.745 191.611 133.928 194.075V194.085C133.185 194.353 132.436 194.608 131.685 194.857C131.462 194.932 131.238 195.004 131.013 195.077C130.794 195.149 130.576 195.223 130.357 195.293V195.289C127.429 196.224 124.444 197.03 121.406 197.695C166.347 187.893 200 147.88 200 99.9998C200 44.7714 155.229 0 100 0C44.7718 0 0.000366211 44.7714 0.000366211 99.9998C0.000366211 147.88 33.653 187.893 78.594 197.695C75.5561 197.03 72.5709 196.225 69.6432 195.29V195.294H69.6428Z"
			fill="#FFA055" />
		<path
			d="M113.615 199.073C113.112 199.142 112.608 199.208 112.103 199.269C112.608 199.208 113.112 199.141 113.615 199.073Z"
			fill="#FFA055" />
		<path
			d="M108.221 199.661C107.971 199.681 107.722 199.704 107.471 199.722C107.721 199.704 107.971 199.682 108.221 199.661Z"
			fill="#FFA055" />
		<path
			d="M104.737 199.885C104.926 199.876 105.116 199.869 105.305 199.859C106.029 199.821 106.751 199.775 107.471 199.722C107.722 199.703 107.971 199.681 108.221 199.661C108.712 199.621 109.202 199.578 109.691 199.531C109.994 199.502 110.297 199.472 110.6 199.441C111.102 199.387 111.603 199.329 112.103 199.269C112.608 199.207 113.112 199.142 113.615 199.073C113.962 199.026 114.308 198.979 114.654 198.927C115.078 198.865 115.501 198.8 115.923 198.732C116.154 198.695 116.386 198.656 116.617 198.617C118.215 198.348 119.802 198.045 121.373 197.702C121.384 197.699 121.395 197.696 121.407 197.695C124.445 197.03 127.43 196.224 130.358 195.289V159.489C130.358 155.195 132.03 151.157 135.065 148.122L146.224 136.965C147.098 137.788 147.882 138.699 148.525 139.714L137.59 150.648C135.229 153.009 133.93 156.148 133.93 159.489V194.074C140.747 191.61 147.222 188.429 153.261 184.62L150.713 146.388C150.291 140.06 145.748 134.768 139.557 133.393L124.079 129.953L113.133 146.375C111.883 148.25 109.229 148.513 107.636 146.919L101.786 141.071V199.954C101.189 199.964 100.599 200 100 200C100.768 200 101.533 199.988 102.297 199.971C102.517 199.966 102.736 199.959 102.956 199.953C103.55 199.935 104.144 199.913 104.737 199.885Z"
			fill="#2463EB" />
		<path
			d="M68.9862 195.079C68.762 195.006 68.5382 194.932 68.3143 194.859C68.5378 194.933 68.762 195.005 68.9862 195.079Z"
			fill="#2463EB" />
		<path
			d="M98.2142 141.071L92.3662 146.919C90.7724 148.513 88.1193 148.25 86.8693 146.375L75.9221 129.954L60.444 133.393C54.2534 134.769 49.7108 140.061 49.2889 146.388L46.7401 184.62C52.7799 188.43 59.2549 191.611 66.0717 194.075V159.49C66.0717 156.149 64.7725 153.009 62.4116 150.648L51.4768 139.715C52.1186 138.699 52.9042 137.789 53.7776 136.965L64.937 148.123C67.9713 151.157 69.6436 155.196 69.6436 159.489V195.29C72.5713 196.224 75.5565 197.03 78.5943 197.695C78.6057 197.697 78.617 197.7 78.6283 197.702C80.1998 198.045 81.7865 198.349 83.3846 198.617C83.6158 198.656 83.8471 198.695 84.0787 198.732C84.5006 198.8 84.9232 198.865 85.3471 198.928C85.6928 198.979 86.0396 199.026 86.3865 199.073C86.8893 199.142 87.3932 199.208 87.8982 199.269C88.3982 199.33 88.899 199.388 89.4018 199.441C89.7041 199.473 90.0076 199.502 90.3107 199.531C90.7994 199.578 91.2896 199.622 91.7807 199.662C92.0307 199.682 92.2799 199.704 92.5303 199.722C93.2502 199.776 93.9721 199.822 94.6967 199.86C94.8853 199.87 95.0752 199.877 95.2646 199.885C95.8572 199.913 96.4513 199.936 97.0463 199.953C97.2658 199.959 97.4857 199.966 97.7053 199.971C98.4685 199.989 99.2338 200 100.002 200C99.4025 200 98.8123 199.965 98.2162 199.954V141.071H98.2142Z"
			fill="#2463EB" />
		<path
			d="M105.306 122.878C101.9 124.24 98.1002 124.24 94.6944 122.878L82.1425 117.857V125L99.9994 139.285L117.857 125V117.857L105.306 122.878Z"
			fill="#EBC89B" />
		<path
			d="M124.511 60.7143H128.571C132.516 60.7143 135.714 63.9124 135.714 67.8573V78.5717C137.12 78.5717 138.426 78.9834 139.532 79.6846L141.287 62.1358C141.694 58.0647 140.353 54.2577 137.906 51.4097C135.694 57.1292 130.559 60.7143 124.511 60.7143Z"
			fill="#968687" />
		<path
			d="M64.2858 67.8569C64.2858 63.9124 67.4834 60.7139 71.4287 60.7139H73.7377C69.1154 60.7139 65.2744 57.3932 64.4537 53.0096C64.4092 52.7733 64.3717 52.535 64.3443 52.2936C64.3389 52.246 64.335 52.1975 64.3307 52.1495C64.3025 51.8577 64.2861 51.562 64.2861 51.2628V51.2616C64.2861 50.5811 64.3264 49.9128 64.4006 49.2546C60.5338 52.1393 58.1924 56.9233 58.7139 62.1362L60.469 79.685C61.574 78.9842 62.8807 78.5721 64.2865 78.5721L64.2858 67.8569Z"
			fill="#968687" />
		<path
			d="M105.306 122.877L117.857 117.857L126.734 114.306C132.158 112.137 135.714 106.884 135.714 101.042V92.8572C139.659 92.8572 142.857 89.6592 142.857 85.7143C142.857 83.1748 141.528 80.951 139.532 79.6842C138.427 78.9834 137.12 78.5713 135.714 78.5713V67.8569C135.714 63.9124 132.517 60.7139 128.571 60.7139H124.511H78.5713H73.7373H71.4284C67.4834 60.7139 64.2854 63.912 64.2854 67.8569V78.5713C62.8799 78.5713 61.5733 78.983 60.4678 79.6842C58.4714 80.9506 57.1425 83.1748 57.1425 85.7143C57.1425 89.6588 60.3401 92.8572 64.2854 92.8572V101.042C64.2854 106.884 67.8417 112.137 73.2655 114.306L82.1428 117.857L94.6939 122.877C98.1006 124.24 101.899 124.24 105.306 122.877ZM88.6838 102.856C89.5733 101.095 91.7217 100.387 93.4811 101.276C97.0736 103.083 102.926 103.083 106.518 101.276C108.288 100.379 110.428 101.095 111.315 102.856C112.203 104.617 111.495 106.766 109.734 107.652C106.919 109.071 103.554 109.821 99.9998 109.821C96.4459 109.821 93.0803 109.071 90.2654 107.652C88.5045 106.766 87.7963 104.618 88.6838 102.856ZM117.857 78.5713C119.829 78.5713 121.429 80.1705 121.429 82.1428V85.7143C121.429 87.6865 119.829 89.2858 117.857 89.2858C115.885 89.2858 114.286 87.6865 114.286 85.7143V82.1428C114.286 80.1705 115.885 78.5713 117.857 78.5713ZM78.5713 85.7143V82.1428C78.5713 80.1705 80.1705 78.5713 82.1428 78.5713C84.1151 78.5713 85.7143 80.1705 85.7143 82.1428V85.7143C85.7143 87.6865 84.1151 89.2858 82.1428 89.2858C80.1705 89.2854 78.5713 87.6865 78.5713 85.7143Z"
			fill="#F5DCAA" />
		<path
			d="M85.7144 85.7143V82.1428C85.7144 80.1706 84.1151 78.5714 82.1429 78.5714C80.1706 78.5714 78.5714 80.1706 78.5714 82.1428V85.7143C78.5714 87.6866 80.1706 89.2858 82.1429 89.2858C84.1151 89.2854 85.7144 87.6866 85.7144 85.7143Z"
			fill="#464655" />
		<path
			d="M117.857 89.2854C119.83 89.2854 121.429 87.6861 121.429 85.7139V82.1424C121.429 80.1701 119.83 78.5709 117.857 78.5709C115.885 78.5709 114.286 80.1701 114.286 82.1424V85.7139C114.286 87.6865 115.885 89.2854 117.857 89.2854Z"
			fill="#464655" />
		<path
			d="M103.683 48.6605C103.683 48.6605 110.587 45.4515 116.504 41.3503C112.765 42.0855 108.545 42.6542 103.795 42.9687C79.6081 44.5691 66.1831 45.2007 64.4906 53.2081C64.4769 53.1429 64.4664 53.0761 64.4539 53.0101C65.2746 57.3944 69.1156 60.7143 73.7378 60.7143H78.5718H124.511C130.559 60.7143 135.694 57.1296 137.906 51.4093C138.102 50.9023 138.283 50.3847 138.431 49.8448L142.857 28.571C142.857 28.571 132.701 47.3214 103.683 48.6605Z"
			fill="#464655" />
		<path
			d="M64.3449 52.2937C64.3394 52.246 64.3355 52.1972 64.3312 52.1495C64.3351 52.1972 64.3394 52.2456 64.3449 52.2937Z"
			fill="#464655" />
		<path
			d="M64.2858 51.2624C64.2858 51.562 64.3022 51.8574 64.3303 52.1495C64.3346 52.1972 64.3389 52.246 64.344 52.2937C64.3709 52.5355 64.4088 52.7738 64.4534 53.0097C64.4659 53.0757 64.476 53.1421 64.4901 53.2077C66.1831 45.2007 79.608 44.5695 103.794 42.9683C108.544 42.6539 112.764 42.0851 116.504 41.35C110.587 45.4511 103.683 48.6601 103.683 48.6601C132.701 47.3206 142.857 28.5707 142.857 28.5707C142.857 28.5707 80.5057 31.8445 70.5354 38.9871C66.6944 41.739 64.8479 45.2773 64.3999 49.2531C64.3256 49.9113 64.2854 50.58 64.2854 51.2601C64.2858 51.2617 64.2858 51.2624 64.2858 51.2624Z"
			fill="#5C5D6E" />
		<path
			d="M101.786 141.071L107.634 146.919C109.228 148.513 111.881 148.25 113.131 146.375L124.078 129.954L125 128.571L117.857 125L100 139.285L82.1428 125L74.9999 128.571L75.9214 129.954L86.8686 146.375C88.1186 148.25 90.7721 148.513 92.3655 146.919L98.2143 141.071V199.954C98.8108 199.964 99.401 200 99.9998 200C100.599 200 101.189 199.965 101.785 199.954L101.786 141.071Z"
			fill="white" />
		<path
			d="M131.014 195.079C131.238 195.006 131.462 194.932 131.686 194.859C132.437 194.609 133.186 194.354 133.928 194.086V194.076V159.491C133.928 156.15 135.227 153.01 137.588 150.649L148.523 139.716C147.881 138.701 147.096 137.79 146.222 136.967L135.063 148.124C132.029 151.158 130.357 155.197 130.357 159.49V195.291V195.294C130.577 195.224 130.795 195.15 131.014 195.079Z"
			fill="white" />
		<path
			d="M68.314 194.858C68.5378 194.933 68.7616 195.005 68.9858 195.078C69.205 195.15 69.4229 195.224 69.6425 195.293V195.29V159.49C69.6425 155.196 67.9702 151.158 64.9358 148.123L53.7765 136.966C52.9027 137.789 52.1179 138.7 51.4757 139.715L62.4105 150.649C64.7718 153.01 66.0706 156.149 66.0706 159.49V194.075V194.085C66.8144 194.353 67.5632 194.609 68.314 194.858Z"
			fill="white" />
		<path
			d="M90.2658 107.652C93.0806 109.071 96.4463 109.821 100 109.821C103.554 109.821 106.92 109.071 109.735 107.652C111.496 106.767 112.204 104.618 111.316 102.856C110.429 101.095 108.289 100.38 106.519 101.276C102.926 103.083 97.0744 103.083 93.4818 101.276C91.7224 100.387 89.5736 101.095 88.6846 102.856C87.7963 104.618 88.5045 106.766 90.2658 107.652Z"
			fill="#DCB491" />
	</g>
	<defs>
		<clipPath id="clip0_25_85">
			<rect width="200" height="200" fill="white" />
		</clipPath>
	</defs>
</svg>