<svg width="192" height="69" viewBox="0 0 192 69" fill="none" xmlns="http://www.w3.org/2000/svg">
    <g clip-path="url(#clip0_388_205)">
        <path
            d="M49.8542 40.3996V67.5005H63.8121V40.2031C63.8121 32.5575 67.6355 28.6865 75.2858 28.6865H79.9384V14.9878H77.9747C59.6765 14.9878 50.2707 23.4262 49.8542 40.3996V40.3996Z"
            fill="white" />
        <path d="M185.384 0H178.25V67.5005H192V6.45292C192 2.97827 189.002 0 185.384 0Z"
            fill="white" />
        <path
            d="M151.462 14.1948C138.847 14.1948 131.713 18.9587 130.062 28.6863H143.812C144.533 26.2044 147.222 25.0152 152.079 25.0152C157.766 25.0152 160.659 26.5043 160.972 29.4826C160.972 32.3609 157.974 34.0465 152.079 34.7428C142.214 35.6597 134.549 37.6383 130.844 43.2536H130.841C130.841 43.2536 130.827 43.2812 130.812 43.3053C130.812 43.3088 130.809 43.3088 130.809 43.3122C130.783 43.3536 130.744 43.4156 130.697 43.488C130.669 43.5397 130.633 43.5949 130.59 43.6569C129.997 44.5739 128.489 46.6524 127.466 45.87C127.441 45.8527 127.412 45.832 127.384 45.8045V43.2536H127.369V28.6863C127.061 18.9587 119.41 14.1948 104.318 14.1948C91.7028 14.1948 84.5694 18.9587 82.918 28.6863H96.6677C97.3893 26.2044 100.078 25.0152 104.935 25.0152C110.622 25.0152 113.516 26.5043 113.828 29.4826C113.828 32.3609 110.83 34.0465 104.935 34.7428C91.0853 36.032 81.5718 39.4067 81.2631 52.0126C81.2631 62.5262 88.7159 68.3242 99.87 68.5896L99.8018 68.6654H115.835C114.557 68.2862 113.426 67.7313 112.435 67.0005C110.97 65.925 109.814 64.4738 108.96 62.6744C108.938 62.6262 108.913 62.5814 108.895 62.5331C108.486 61.6782 108.105 60.8061 107.642 59.9788C107.581 59.8685 107.52 59.7582 107.456 59.6513C106.878 58.6862 106.138 57.914 105.183 57.4383C104.666 57.1763 104.081 57.004 103.428 56.935C102.326 56.8247 101.198 57.104 100.204 57.6796H100.2C99.5397 58.0657 98.9402 58.5793 98.4448 59.1963C98.1935 59.51 97.9709 59.8478 97.777 60.2098C97.5544 60.6269 97.3606 61.0681 97.0662 61.6748C96.4739 60.8509 95.86 60.1201 95.3502 59.3583C95.1743 59.0998 95.0091 58.8413 94.862 58.5724C94.2086 57.3763 93.7562 56.1801 93.5265 54.9909L93.408 54.1808C93.1782 51.9402 93.7742 49.7341 95.3717 47.6038C97.3067 45.0151 99.9095 43.2467 103.23 42.6883C104.939 42.3988 106.659 42.547 108.271 43.0399C110.514 43.7259 112.539 45.0875 114.004 46.8868C114.923 48.0071 115.619 49.2963 116.014 50.6993C116.082 50.9303 116.14 51.1646 116.19 51.4025C116.47 52.7469 116.52 54.0567 116.319 55.3287C116.136 56.4869 115.741 57.621 115.124 58.7275C114.56 59.741 114.198 60.8268 114.252 61.9954C114.316 63.4431 114.829 64.7185 115.63 65.8595C115.896 66.2352 116.19 66.5937 116.51 66.9419C116.944 67.4141 117.443 67.8037 118.032 68.0829C118.01 68.0518 117.989 68.0277 117.967 68.0001C117.314 67.2177 116.833 66.3697 116.499 65.4665C116.176 64.6186 115.985 63.7189 115.91 62.7882C115.82 61.692 115.881 60.6234 116.086 59.579C116.344 58.2346 116.833 56.9316 117.547 55.6803C117.59 55.6079 117.633 55.5355 117.684 55.4597C117.788 55.3184 117.895 55.1805 118.014 55.0426C119.17 53.6879 120.85 52.702 122.681 52.4952C124.016 52.347 125.445 52.5952 126.77 52.5228C127.341 52.4918 127.893 52.4056 128.41 52.1988C128.579 52.1333 128.741 52.0574 128.902 51.9644C129.563 51.5852 130.033 51.0268 130.5 50.4546C130.686 50.2236 130.873 49.9961 131.071 49.7755C131.397 49.4066 131.742 49.1068 132.166 48.831C132.352 48.7103 132.553 48.6069 132.762 48.5001C133.164 48.2898 133.569 48.083 133.856 47.7624C133.903 47.7107 133.946 47.6486 133.986 47.5728C134.097 47.3694 134.194 47.1006 134.316 46.8765C134.478 46.58 134.686 46.3525 135.038 46.4422C135.038 46.4422 135.537 46.4801 135.63 46.9179V46.9248C135.648 47.135 135.662 47.3418 135.673 47.5452C135.702 47.7417 135.712 47.9416 135.712 48.1347C135.741 48.0795 137.008 48.8103 137.134 48.9068C137.91 49.4756 138.412 50.2719 138.671 51.1784C138.689 51.2405 138.71 51.3094 138.728 51.3784C138.958 52.316 139.044 53.4294 138.933 54.3739C138.929 54.4118 138.922 54.4463 138.918 54.4842C138.882 54.7324 138.656 54.9702 138.462 55.1184C138.233 55.2873 137.992 55.3597 137.694 55.377C137.019 55.4114 136.316 55.4494 135.619 55.4011C135.619 55.4011 135.163 55.2977 134.513 55.0874H134.51C134.499 55.1529 134.481 55.2287 134.456 55.3011H134.46C134.707 55.4494 134.898 55.5562 135.048 55.6389C134.582 56.0664 134.377 56.9247 135.099 56.9799C135.3 56.9936 135.497 56.9799 135.695 56.9419C136.513 56.8144 137.288 56.387 138.132 56.611C138.215 56.6317 138.297 56.6558 138.387 56.6938C138.678 56.811 139.033 57.0316 139.137 57.3487C139.22 57.6107 139.051 57.8347 138.803 57.9381C138.588 58.0278 138.358 58.0553 138.121 58.0657C138.014 58.0864 137.902 58.1036 137.798 58.1139C137.572 58.1346 137.342 58.1346 137.113 58.1381C136.811 58.207 136.535 58.3449 136.265 58.5069C135.519 58.955 134.829 59.5031 134.119 60.0064C133.411 60.5028 132.665 61.0302 131.835 61.3438C131.688 61.399 131.537 61.4438 131.383 61.4714C131.282 61.4714 131.175 61.4473 131.071 61.4059C129.986 60.9957 128.705 58.7344 128.594 58.5414C128.629 58.6758 128.953 59.7858 129.836 60.8337C128.748 60.227 126.727 60.5028 126.727 60.5028C128.891 60.5958 130.001 61.4335 130.539 62.0884C130.568 62.2573 130.59 62.4262 130.593 62.5986C130.625 63.0433 130.611 63.4948 130.554 63.9326C130.5 64.3566 130.406 64.7737 130.263 65.1839C130.098 65.6389 129.868 66.0629 129.577 66.449C129.434 66.6489 129.276 66.835 129.096 67.0039C129.024 67.0763 128.705 67.2969 128.766 67.3142C129.071 67.3969 129.523 67.6727 129.814 67.8692C130.195 67.914 130.568 67.9726 130.945 68.0381C131.354 68.1036 131.746 68.2897 132.026 68.6654H149.326L149.258 68.5689C149.71 68.5551 150.169 68.5275 150.632 68.4931C165.416 67.5003 174.513 61.0474 174.513 46.5559V28.6863C174.204 18.9587 166.554 14.1948 151.462 14.1948V14.1948ZM161.176 45.9596C161.176 53.4052 156.527 57.7727 148.877 57.7727C144.533 57.7727 142.261 55.7872 141.948 51.6162C141.948 47.7452 144.741 45.2633 150.22 44.2705C154.251 43.4777 157.974 42.385 161.176 41.0958V45.9596V45.9596Z"
            fill="white" />
        <path
            d="M118.531 68.6656L118.868 68.9861C118.958 68.9861 119.041 68.9896 119.123 68.9896C119.471 68.993 119.823 68.9965 120.171 68.9999L119.701 68.6656L119.489 68.5173C118.947 68.4346 118.466 68.2898 118.032 68.083C118.093 68.1657 118.161 68.2692 118.269 68.4174L118.531 68.6656V68.6656Z"
            fill="white" />
        <path
            d="M135.874 52.306C135.874 52.306 135.899 52.3198 135.914 52.3198C136.14 52.4232 136.851 52.5611 136.851 52.5611C136.851 52.5611 136.858 52.3784 136.754 52.1509C136.743 52.1233 136.732 52.0992 136.718 52.0716C136.703 52.0406 136.689 52.013 136.671 51.982C136.671 51.9751 136.667 51.9717 136.664 51.9648C136.653 51.9475 136.639 51.9268 136.624 51.9096C136.61 51.8924 136.596 51.8717 136.578 51.8545C136.553 51.8234 136.52 51.7959 136.484 51.7683C136.373 51.658 136.211 51.5546 136.003 51.4718C135.511 51.2822 135.325 51.2891 135.264 51.3339L135.763 51.6063C135.799 51.6201 135.82 51.6373 135.835 51.6442C135.59 51.8579 135.73 52.1992 135.878 52.306H135.874Z"
            fill="white" />
        <path
            d="M46.9068 16.7528H30.4862L13.6527 35.2808V6.40466C13.6527 2.95759 10.6766 0 7.08306 0H0V67.0179H13.6527V47.997C13.6527 46.6147 14.3707 45.7288 15.8067 45.4324C17.5515 45.4324 19.2962 46.9112 21.0409 49.8688L30.6908 67.0179H47.1115L28.124 36.0701L46.9068 16.7528V16.7528Z"
            fill="white" />
    </g>
    <defs>
        <clipPath id="clip0_388_205">
            <rect width="192" height="69" fill="white" />
        </clipPath>
    </defs>
</svg>