<svg width="211" height="9" viewBox="0 0 211 9" fill="none" color="#4F4F4F" xmlns="http://www.w3.org/2000/svg" >
    <g>
        <path
            d="M105.5 8.40001C102.8 7.60001 99.8996 5.00001 100.5 1.90001C100.6 1.30001 100.9 0.80001 101.4 0.40001C102.5 -0.39999 103.5 0.30001 104.2 1.20001C104.7 1.90001 105.2 2.70001 105.5 3.60001C105.4 3.30001 106 2.20001 106.1 1.90001C106.4 1.30001 106.8 0.80001 107.3 0.50001C108 9.65595e-06 109.2 -0.39999 110 0.30001C111.1 1.40001 110.4 3.90001 109.7 4.90001C108.2 7.00001 105.6 8.40001 105.5 8.40001Z"
            fill="currentColor" />
        <path
            d="M10.9002 5.1998C21.0002 5.4998 31.2002 5.4998 41.3002 5.4998C50.8002 5.4998 60.2002 5.4998 69.7002 5.4998C75.6002 5.4998 81.6002 5.3998 87.5002 5.2998C87.7002 5.2998 87.7002 4.9998 87.5002 4.9998C77.3002 4.7998 67.2002 4.7998 57.0002 4.7998C47.5002 4.7998 38.1002 4.7998 28.6002 4.8998C22.7002 4.8998 16.8002 4.8998 10.9002 5.1998C10.8002 5.1998 10.8002 5.0998 10.9002 5.1998Z"
            fill="currentColor" />
        <path
            d="M96.1002 7.8C97.4257 7.8 98.5002 6.72548 98.5002 5.4C98.5002 4.07452 97.4257 3 96.1002 3C94.7747 3 93.7002 4.07452 93.7002 5.4C93.7002 6.72548 94.7747 7.8 96.1002 7.8Z"
            fill="currentColor" />
        <path
            d="M92.0004 5.4C92.0004 6.1 91.4004 6.7 90.7004 6.7C90.0004 6.7 89.4004 6.1 89.4004 5.4C89.4004 4.7 89.9004 4 90.6004 4C91.3004 4 92.0004 4.6 92.0004 5.4Z"
            fill="currentColor" />
        <path d="M7.70039 8.6999L11.2004 5.1999L7.40039 1.3999L7.70039 8.6999Z" fill="currentColor" />
        <path
            d="M10.5 1.3999C11.3 1.8999 12 2.3999 12.7 2.9999C13.4 3.5999 14 4.1999 14.6 4.7999C14.8 4.9999 14.8 5.2999 14.6 5.4999C14 6.0999 13.4 6.5999 12.8 7.0999C12.2 7.5999 11.5 8.0999 10.8 8.4999C11.2 7.7999 11.7 7.0999 12.2 6.4999C12.7 5.8999 13.3 5.2999 13.8 4.6999V5.3999C13.2 4.7999 12.6 4.0999 12 3.3999C11.5 2.8999 11 2.1999 10.5 1.3999Z"
            fill="currentColor" />
        <path
            d="M13.5996 1.3999C14.3996 1.8999 15.0996 2.3999 15.7996 2.9999C16.4996 3.5999 17.0996 4.1999 17.6996 4.7999C17.8996 4.9999 17.8996 5.2999 17.6996 5.4999C17.0996 6.0999 16.4996 6.5999 15.8996 7.0999C15.2996 7.5999 14.5996 8.0999 13.8996 8.4999C14.2996 7.7999 14.7996 7.0999 15.2996 6.4999C15.7996 5.8999 16.3996 5.2999 16.8996 4.6999V5.3999C16.2996 4.7999 15.6996 4.0999 15.0996 3.3999C14.4996 2.8999 13.9996 2.1999 13.5996 1.3999Z"
            fill="currentColor" />
        <path
            d="M16.5996 1.3999C17.3996 1.8999 18.0996 2.3999 18.7996 2.9999C19.4996 3.5999 20.0996 4.1999 20.6996 4.7999C20.8996 4.9999 20.8996 5.2999 20.6996 5.4999C20.0996 6.0999 19.4996 6.5999 18.8996 7.0999C18.2996 7.5999 17.5996 8.0999 16.8996 8.4999C17.2996 7.7999 17.7996 7.0999 18.2996 6.4999C18.7996 5.9999 19.3996 5.3999 19.9996 4.7999V5.4999C19.3996 4.8999 18.7996 4.1999 18.1996 3.4999C17.5996 2.8999 17.0996 2.1999 16.5996 1.3999Z"
            fill="currentColor" />
        <path
            d="M6.39961 5.09995C6.39961 5.89995 5.79961 6.49995 4.99961 6.49995C4.19961 6.49995 3.59961 5.89995 3.59961 5.09995C3.59961 4.29995 4.19961 3.69995 4.99961 3.69995C5.69961 3.69995 6.39961 4.29995 6.39961 5.09995Z"
            fill="currentColor" />
        <path
            d="M1 6.09985C1.55228 6.09985 2 5.65214 2 5.09985C2 4.54757 1.55228 4.09985 1 4.09985C0.447715 4.09985 0 4.54757 0 5.09985C0 5.65214 0.447715 6.09985 1 6.09985Z"
            fill="currentColor" />
        <path
            d="M199.9 5.0998C189.7 4.7998 179.6 4.7998 169.4 4.7998C159.9 4.7998 150.5 4.7998 141 4.7998C135.1 4.7998 129.1 4.8998 123.2 4.9998C123 4.9998 123 5.2998 123.2 5.2998C133.4 5.4998 143.5 5.4998 153.7 5.4998C163.2 5.4998 172.6 5.4998 182.1 5.3998C188 5.3998 194 5.3998 199.9 5.0998Z"
            fill="currentColor" />
        <path
            d="M114.7 7.8C116.025 7.8 117.1 6.72548 117.1 5.4C117.1 4.07452 116.025 3 114.7 3C113.374 3 112.3 4.07452 112.3 5.4C112.3 6.72548 113.374 7.8 114.7 7.8Z"
            fill="currentColor" />
        <path
            d="M118.8 5.4C118.8 6.1 119.4 6.7 120.1 6.7C120.8 6.7 121.4 6.1 121.4 5.4C121.4 4.7 120.9 4 120.1 4C119.4 4 118.8 4.6 118.8 5.4Z"
            fill="currentColor" />
        <path d="M203 8.6999L199.6 5.1999L203.3 1.3999L203 8.6999Z" fill="currentColor" />
        <path
            d="M200.3 1.3999C199.8 2.1999 199.3 2.8999 198.7 3.5999C198.1 4.2999 197.5 4.9999 196.9 5.5999V4.8999C197.5 5.4999 198 6.0999 198.5 6.6999C199 7.2999 199.5 7.9999 199.9 8.6999C199.2 8.2999 198.5 7.7999 197.9 7.2999C197.3 6.7999 196.7 6.1999 196.1 5.6999C195.9 5.4999 195.9 5.1999 196.1 4.9999C196.7 4.3999 197.4 3.6999 198 3.1999C198.8 2.3999 199.5 1.8999 200.3 1.3999Z"
            fill="currentColor" />
        <path
            d="M197.2 1.3999C196.7 2.1999 196.2 2.8999 195.6 3.5999C195 4.2999 194.4 4.9999 193.8 5.5999V4.8999C194.4 5.4999 194.9 6.0999 195.4 6.6999C195.9 7.2999 196.4 7.9999 196.8 8.6999C196.1 8.2999 195.4 7.7999 194.8 7.2999C194.2 6.7999 193.6 6.1999 193 5.6999C192.8 5.4999 192.8 5.1999 193 4.9999C193.6 4.3999 194.3 3.6999 194.9 3.1999C195.7 2.3999 196.4 1.8999 197.2 1.3999Z"
            fill="currentColor" />
        <path
            d="M194.1 1.3999C193.6 2.1999 193.1 2.8999 192.5 3.5999C191.9 4.2999 191.3 4.9999 190.7 5.5999V4.8999C191.3 5.4999 191.8 6.0999 192.3 6.6999C192.8 7.2999 193.3 7.9999 193.7 8.6999C193 8.2999 192.3 7.7999 191.7 7.2999C191.1 6.7999 190.5 6.1999 189.9 5.6999C189.7 5.4999 189.7 5.1999 189.9 4.9999C190.5 4.3999 191.2 3.6999 191.8 3.1999C192.6 2.3999 193.3 1.8999 194.1 1.3999Z"
            fill="currentColor" />
        <path
            d="M205.799 6.49995C206.573 6.49995 207.199 5.87315 207.199 5.09995C207.199 4.32675 206.573 3.69995 205.799 3.69995C205.026 3.69995 204.399 4.32675 204.399 5.09995C204.399 5.87315 205.026 6.49995 205.799 6.49995Z"
            fill="currentColor" />
        <path
            d="M209.8 6.09985C210.352 6.09985 210.8 5.65214 210.8 5.09985C210.8 4.54757 210.352 4.09985 209.8 4.09985C209.248 4.09985 208.8 4.54757 208.8 5.09985C208.8 5.65214 209.248 6.09985 209.8 6.09985Z"
            fill="currentColor" />
    </g>
    <defs>
        <clipPath id="clip0_104_133">
            <rect width="210.8" height="8.7" fill="white" />
        </clipPath>
    </defs>
</svg>
    