<svg width="346" height="256" viewBox="0 0 346 256" fill="none" xmlns="http://www.w3.org/2000/svg">
<g filter="url(#filter0_d_1_519)">
<rect x="204.505" y="209.051" width="26.6995" height="16.0197" rx="8.00984" fill="#2463EB"/>
</g>
<path d="M55.2683 74.5406C32.8278 74.5406 12.8032 91.8705 12.8032 91.8705V195.37H333.197V52.5019C333.197 52.5019 322.784 40.3207 306.318 36.376C276.639 29.266 272.496 81.1729 246.424 81.1729C227.273 81.1729 225.95 48.7392 200.415 45.7828C174.88 42.8264 163.361 117.308 122.197 116.468C91.3602 115.839 72.61 74.5406 55.2683 74.5406Z" fill="url(#paint0_linear_1_519)"/>
<path d="M13.3372 91.6482C13.3372 91.6482 32.97 71.9534 55.2684 74.4759C82 77.5 91.3602 115.705 122.197 116.333C163.361 117.172 175.83 48.532 200.415 45.766C225 43 224.5 80 246.5 79.5C268.5 79 276.639 29.2767 306.318 36.3749C322.784 40.313 333.197 52.4739 333.197 52.4739" stroke="url(#paint1_linear_1_519)" stroke-width="5" stroke-linecap="round"/>
<path opacity="0.3" d="M196.496 20.4648C196.496 9.41908 205.45 0.464783 216.496 0.464783H219.215C230.26 0.464783 239.215 9.41909 239.215 20.4648V195.371H196.496V20.4648Z" fill="url(#paint2_linear_1_519)"/>
<g filter="url(#filter1_d_1_519)">
<circle cx="217.855" cy="53.3297" r="13.3497" fill="url(#paint3_linear_1_519)"/>
<circle cx="217.855" cy="53.3297" r="10.3497" stroke="white" stroke-width="6"/>
</g>
<path opacity="0.5" d="M33.6532 221.463C35.3114 221.463 36.29 220.485 36.29 218.821V212.868H34.9775V218.809C34.9775 219.776 34.5087 220.291 33.6415 220.291C32.8564 220.291 32.4521 219.787 32.3993 219.143L32.3935 219.09H31.0985L31.1044 219.161C31.1747 220.508 32.0888 221.463 33.6532 221.463ZM39.4071 221.434C40.2216 221.434 40.9364 221.012 41.2939 220.35H41.3173V221.323H42.5888V217.075C42.5888 215.838 41.6337 215.041 40.1278 215.041C38.6103 215.041 37.6903 215.856 37.6025 216.916L37.5966 216.981H38.7919L38.8036 216.928C38.9091 216.436 39.3603 216.09 40.0927 216.09C40.8778 216.09 41.3173 216.5 41.3173 217.18V217.643L39.6415 217.743C38.1825 217.83 37.3505 218.487 37.3505 219.559V219.571C37.3505 220.678 38.1767 221.434 39.4071 221.434ZM38.6278 219.541V219.53C38.6278 219.008 39.0497 218.674 39.8114 218.627L41.3173 218.534V219.014C41.3173 219.817 40.6435 220.42 39.7528 220.42C39.0732 220.42 38.6278 220.08 38.6278 219.541ZM43.8193 221.323H45.0849V217.731C45.0849 216.77 45.6591 216.125 46.5497 216.125C47.4286 216.125 47.8622 216.647 47.8622 217.573V221.323H49.1337V217.332C49.1337 215.914 48.3544 215.041 47.0009 215.041C46.0693 215.041 45.4364 215.463 45.1142 216.09H45.0849V215.159H43.8193V221.323Z" fill="#454459"/>
<path d="M207.279 221.323H208.644V215.311H208.685L211.123 221.323H212.148L214.586 215.311H214.632V221.323H215.992V212.868H214.246L211.656 219.325H211.615L209.025 212.868H207.279V221.323ZM219.021 221.428C219.841 221.428 220.533 221.018 220.89 220.368H220.925V221.323H222.384V217.051C222.384 215.803 221.382 214.983 219.83 214.983C218.254 214.983 217.298 215.809 217.211 216.911L217.205 216.981H218.558L218.57 216.928C218.664 216.471 219.086 216.149 219.777 216.149C220.515 216.149 220.925 216.53 220.925 217.157V217.584L219.302 217.684C217.797 217.778 216.941 218.44 216.941 219.541V219.553C216.941 220.661 217.779 221.428 219.021 221.428ZM218.394 219.495V219.489C218.394 218.996 218.787 218.686 219.507 218.639L220.925 218.551V219.02C220.925 219.758 220.293 220.315 219.455 220.315C218.816 220.315 218.394 220.004 218.394 219.495ZM224.371 223.385C225.666 223.385 226.392 222.899 226.867 221.534L229.099 215.112H227.564L226.105 220.08H226.064L224.611 215.112H223.017L225.25 221.328L225.162 221.58C224.974 222.102 224.664 222.26 224.107 222.26C223.902 222.26 223.732 222.231 223.621 222.207V223.321C223.797 223.35 224.089 223.385 224.371 223.385Z" fill="white"/>
<path opacity="0.5" d="M74.9117 221.323H76.2242V217.784H79.857V216.676H76.2242V213.998H80.191V212.868H74.9117V221.323ZM83.6011 221.446C85.0953 221.446 86.0445 220.555 86.2437 219.577L86.2554 219.512H85.0542L85.0367 219.559C84.8785 220.022 84.3804 220.409 83.6304 220.409C82.6226 220.409 81.9839 219.729 81.9605 218.563H86.3257V218.135C86.3257 216.284 85.2652 215.041 83.5367 215.041C81.8081 215.041 80.6949 216.33 80.6949 218.258V218.264C80.6949 220.209 81.7906 221.446 83.6011 221.446ZM83.5425 216.078C84.3687 216.078 84.9663 216.6 85.0718 217.666H81.9781C82.0894 216.635 82.7222 216.078 83.5425 216.078ZM90.5855 221.446C92.1499 221.446 93.1636 220.203 93.1636 218.241V218.235C93.1636 216.272 92.1441 215.041 90.5972 215.041C89.7242 215.041 89.021 215.481 88.6519 216.207H88.6226V212.868H87.357V221.323H88.6226V220.28H88.6519C89.0152 221 89.7007 221.446 90.5855 221.446ZM90.2515 220.356C89.2906 220.356 88.6167 219.524 88.6167 218.241V218.235C88.6167 216.957 89.2964 216.125 90.2515 216.125C91.2476 216.125 91.8687 216.934 91.8687 218.235V218.241C91.8687 219.553 91.2476 220.356 90.2515 220.356Z" fill="#454459"/>
<path opacity="0.5" d="M119.676 221.323H120.872V215.082H120.913L123.461 221.323H124.434L126.983 215.082H127.024V221.323H128.219V212.868H126.708L123.965 219.618H123.93L121.194 212.868H119.676V221.323ZM131.272 221.434C132.086 221.434 132.801 221.012 133.159 220.35H133.182V221.323H134.454V217.075C134.454 215.838 133.499 215.041 131.993 215.041C130.475 215.041 129.555 215.856 129.467 216.916L129.461 216.981H130.657L130.669 216.928C130.774 216.436 131.225 216.09 131.958 216.09C132.743 216.09 133.182 216.5 133.182 217.18V217.643L131.506 217.743C130.047 217.83 129.215 218.487 129.215 219.559V219.571C129.215 220.678 130.042 221.434 131.272 221.434ZM130.493 219.541V219.53C130.493 219.008 130.915 218.674 131.676 218.627L133.182 218.534V219.014C133.182 219.817 132.508 220.42 131.618 220.42C130.938 220.42 130.493 220.08 130.493 219.541ZM135.684 221.323H136.95V217.649C136.95 216.729 137.454 216.196 138.268 216.196C138.514 216.196 138.737 216.225 138.836 216.266V215.088C138.737 215.071 138.579 215.041 138.397 215.041C137.694 215.041 137.178 215.493 136.979 216.213H136.95V215.159H135.684V221.323Z" fill="#454459"/>
<path opacity="0.5" d="M256.911 221.463C258.569 221.463 259.548 220.485 259.548 218.821V212.868H258.235V218.809C258.235 219.776 257.766 220.291 256.899 220.291C256.114 220.291 255.71 219.787 255.657 219.143L255.651 219.09H254.356L254.362 219.161C254.432 220.508 255.347 221.463 256.911 221.463ZM263.069 221.446C264.007 221.446 264.634 221.018 264.956 220.397H264.985V221.323H266.257V215.159H264.985V218.756C264.985 219.717 264.411 220.356 263.52 220.356C262.641 220.356 262.208 219.84 262.208 218.909V215.159H260.942V219.155C260.942 220.573 261.716 221.446 263.069 221.446ZM267.511 221.323H268.776V217.731C268.776 216.77 269.35 216.125 270.241 216.125C271.12 216.125 271.554 216.647 271.554 217.573V221.323H272.825V217.332C272.825 215.914 272.046 215.041 270.692 215.041C269.761 215.041 269.128 215.463 268.806 216.09H268.776V215.159H267.511V221.323Z" fill="#454459"/>
<path opacity="0.5" d="M164.12 221.323H165.497L166.277 219.037H169.535L170.308 221.323H171.685L168.615 212.868H167.197L164.12 221.323ZM167.894 214.268H167.917L169.177 217.983H166.628L167.894 214.268ZM172.47 223.373H173.736V220.286H173.765C174.128 221 174.837 221.446 175.71 221.446C177.257 221.446 178.271 220.209 178.271 218.246V218.241C178.271 216.272 177.263 215.041 175.693 215.041C174.814 215.041 174.134 215.487 173.765 216.219H173.736V215.159H172.47V223.373ZM175.365 220.356C174.41 220.356 173.73 219.524 173.73 218.246V218.241C173.73 216.957 174.404 216.125 175.365 216.125C176.355 216.125 176.982 216.928 176.982 218.241V218.246C176.982 219.547 176.361 220.356 175.365 220.356ZM179.255 221.323H180.521V217.649C180.521 216.729 181.025 216.196 181.839 216.196C182.085 216.196 182.308 216.225 182.408 216.266V215.088C182.308 215.071 182.15 215.041 181.968 215.041C181.265 215.041 180.749 215.493 180.55 216.213H180.521V215.159H179.255V221.323Z" fill="#454459"/>
<path opacity="0.5" d="M301.593 221.463C303.251 221.463 304.23 220.485 304.23 218.821V212.868H302.917V218.809C302.917 219.776 302.448 220.291 301.581 220.291C300.796 220.291 300.392 219.787 300.339 219.143L300.333 219.09H299.038L299.044 219.161C299.115 220.508 300.029 221.463 301.593 221.463ZM307.751 221.446C308.689 221.446 309.316 221.018 309.638 220.397H309.667V221.323H310.939V215.159H309.667V218.756C309.667 219.717 309.093 220.356 308.202 220.356C307.323 220.356 306.89 219.84 306.89 218.909V215.159H305.624V219.155C305.624 220.573 306.398 221.446 307.751 221.446ZM312.24 221.323H313.505V212.868H312.24V221.323Z" fill="#454459"/>
<path opacity="0.1" d="M12.8032 195.371H333.197" stroke="#454459"/>
<defs>
<filter id="filter0_d_1_519" x="179.505" y="189.051" width="76.6995" height="66.0197" filterUnits="userSpaceOnUse" color-interpolation-filters="sRGB">
<feFlood flood-opacity="0" result="BackgroundImageFix"/>
<feColorMatrix in="SourceAlpha" type="matrix" values="0 0 0 0 0 0 0 0 0 0 0 0 0 0 0 0 0 0 127 0" result="hardAlpha"/>
<feOffset dy="5"/>
<feGaussianBlur stdDeviation="12.5"/>
<feColorMatrix type="matrix" values="0 0 0 0 0 0 0 0 0 0 0 0 0 0 0 0 0 0 0.1 0"/>
<feBlend mode="normal" in2="BackgroundImageFix" result="effect1_dropShadow_1_519"/>
<feBlend mode="normal" in="SourceGraphic" in2="effect1_dropShadow_1_519" result="shape"/>
</filter>
<filter id="filter1_d_1_519" x="179.505" y="19.98" width="76.6995" height="76.6995" filterUnits="userSpaceOnUse" color-interpolation-filters="sRGB">
<feFlood flood-opacity="0" result="BackgroundImageFix"/>
<feColorMatrix in="SourceAlpha" type="matrix" values="0 0 0 0 0 0 0 0 0 0 0 0 0 0 0 0 0 0 127 0" result="hardAlpha"/>
<feOffset dy="5"/>
<feGaussianBlur stdDeviation="12.5"/>
<feColorMatrix type="matrix" values="0 0 0 0 0 0 0 0 0 0 0 0 0 0 0 0 0 0 0.1 0"/>
<feBlend mode="normal" in2="BackgroundImageFix" result="effect1_dropShadow_1_519"/>
<feBlend mode="normal" in="SourceGraphic" in2="effect1_dropShadow_1_519" result="shape"/>
</filter>
<linearGradient id="paint0_linear_1_519" x1="173" y1="35.707" x2="173" y2="195.37" gradientUnits="userSpaceOnUse">
<stop stop-color="#2463EB" stop-opacity="0.3"/>
<stop offset="1" stop-color="#2463EB" stop-opacity="0"/>
</linearGradient>
<linearGradient id="paint1_linear_1_519" x1="173.267" y1="35.707" x2="173.267" y2="116.34" gradientUnits="userSpaceOnUse">
<stop stop-color="#2463EB"/>
<stop offset="1" stop-color="#5A8CF8"/>
</linearGradient>
<linearGradient id="paint2_linear_1_519" x1="217.855" y1="0.464783" x2="217.855" y2="195.371" gradientUnits="userSpaceOnUse">
<stop stop-color="#2463EB" stop-opacity="0.15"/>
<stop offset="1" stop-color="#2463EB"/>
</linearGradient>
<linearGradient id="paint3_linear_1_519" x1="217.855" y1="39.98" x2="217.855" y2="66.6795" gradientUnits="userSpaceOnUse">
<stop stop-color="#2463EB"/>
<stop offset="1" stop-color="#5E91FF"/>
</linearGradient>
</defs>
</svg>
