<svg width="66" height="24" viewBox="0 0 66 24" fill="none" xmlns="http://www.w3.org/2000/svg">
    <mask id="mask0_89_97" style="mask-type:luminance" maskUnits="userSpaceOnUse" x="0" y="0"
        width="66" height="24">
        <path d="M66 0H0V24H66V0Z" fill="white" />
    </mask>
    <g mask="url(#mask0_89_97)">
        <path
            d="M17.1377 14.0521V23.4784H21.9357V13.9837C21.9357 11.3244 23.25 9.97788 25.8798 9.97788H27.4791V5.21313H26.8041C20.5141 5.21313 17.2808 8.14823 17.1377 14.0521Z"
            fill="#191717" />
        <path d="M63.7254 0H61.2734V23.4784H65.9998V2.24449C65.9998 1.03592 64.9694 0 63.7254 0Z"
            fill="#191717" />
        <path
            d="M52.0654 4.9375C47.7289 4.9375 45.2768 6.59449 44.7092 9.97801H49.4356C49.6836 9.11475 50.608 8.7011 52.2776 8.7011C54.2324 8.7011 55.227 9.21906 55.3344 10.255C55.3344 11.2561 54.304 11.8424 52.2776 12.0846C48.8864 12.4036 46.2517 13.0918 44.9782 15.0449H44.9769C44.9769 15.0449 44.972 15.0545 44.9671 15.0629L44.9658 15.0653C44.9572 15.0797 44.9436 15.1013 44.9276 15.1264C44.9177 15.1444 44.9054 15.1636 44.8906 15.1852C44.6869 15.5041 44.1686 16.2271 43.8169 15.9549C43.8083 15.9489 43.7984 15.9418 43.7885 15.9322V15.0449H43.7836V9.97801C43.6775 6.59449 41.0477 4.9375 35.8597 4.9375C31.5232 4.9375 29.0711 6.59449 28.5035 9.97801H33.2299C33.478 9.11475 34.4023 8.7011 36.072 8.7011C38.0267 8.7011 39.0214 9.21906 39.1287 10.255C39.1287 11.2561 38.0983 11.8424 36.072 12.0846C31.311 12.5331 28.0407 13.7069 27.9346 18.0915C27.9346 21.7484 30.4965 23.7651 34.3307 23.8574L34.3073 23.8838H39.8186C39.3792 23.7519 38.9905 23.5589 38.6499 23.3047C38.1464 22.9306 37.7491 22.4258 37.4553 21.8C37.4479 21.7832 37.4393 21.7676 37.4331 21.7508C37.2924 21.4535 37.1616 21.1501 37.0024 20.8624C36.9815 20.824 36.9605 20.7856 36.9383 20.7485C36.7396 20.4128 36.4854 20.1442 36.1571 19.9787C35.9794 19.8876 35.7783 19.8277 35.5537 19.8037C35.1748 19.7653 34.7873 19.8624 34.4455 20.0627H34.4442C34.2172 20.1969 34.0111 20.3756 33.8408 20.5902C33.7544 20.6993 33.6779 20.8168 33.6112 20.9427C33.5347 21.0878 33.4681 21.2412 33.3669 21.4523C33.1633 21.1657 32.9523 20.9115 32.777 20.6466C32.7166 20.5566 32.6598 20.4667 32.6092 20.3732C32.3846 19.9571 32.2291 19.5411 32.1501 19.1274L32.1094 18.8457C32.0304 18.0663 32.2353 17.299 32.7844 16.558C33.4496 15.6576 34.3443 15.0425 35.4858 14.8483C36.0732 14.7476 36.6643 14.7991 37.2184 14.9706C37.9897 15.2092 38.6857 15.6828 39.1892 16.3086C39.5051 16.6983 39.7445 17.1467 39.8803 17.6347C39.9037 17.715 39.9235 17.7966 39.9407 17.8793C40.037 18.3469 40.0543 18.8025 39.9852 19.2449C39.9222 19.6478 39.7865 20.0423 39.5742 20.4271C39.3805 20.7796 39.2558 21.1573 39.2744 21.5638C39.2966 22.0673 39.473 22.511 39.7482 22.9078C39.8396 23.0385 39.9407 23.1632 40.0506 23.2843C40.1999 23.4486 40.3714 23.5841 40.5738 23.6812C40.5664 23.6704 40.559 23.662 40.5516 23.6524C40.327 23.3802 40.1616 23.0853 40.0469 22.7711C39.9358 22.4762 39.8704 22.1633 39.8445 21.8395C39.8136 21.4583 39.8346 21.0866 39.905 20.7233C39.9938 20.2557 40.1616 19.8025 40.4072 19.3672C40.422 19.3421 40.4368 19.3169 40.4541 19.2905C40.4899 19.2414 40.5269 19.1934 40.5676 19.1454C40.965 18.6742 41.5426 18.3313 42.1719 18.2594C42.631 18.2078 43.1221 18.2942 43.5775 18.269C43.7737 18.2582 43.9638 18.2282 44.1415 18.1563C44.1995 18.1335 44.255 18.1071 44.3106 18.0747C44.5376 17.9429 44.6993 17.7486 44.8597 17.5496C44.9239 17.4693 44.988 17.3901 45.0559 17.3134C45.1682 17.1851 45.2867 17.0808 45.4323 16.9849C45.4965 16.9429 45.5656 16.9069 45.6372 16.8698C45.7754 16.7966 45.9148 16.7247 46.0136 16.6132C46.0296 16.5952 46.0444 16.5736 46.058 16.5472C46.0962 16.4765 46.1296 16.383 46.1715 16.305C46.227 16.2019 46.2986 16.1228 46.4196 16.154C46.4196 16.154 46.5911 16.1672 46.6232 16.3194V16.3218C46.6293 16.395 46.6343 16.4669 46.638 16.5376C46.6479 16.606 46.6516 16.6755 46.6516 16.7427C46.6614 16.7235 47.0971 16.9777 47.1402 17.0112C47.4068 17.2091 47.5796 17.486 47.6684 17.8014C47.6746 17.823 47.682 17.8469 47.6882 17.8709C47.7672 18.197 47.7968 18.5843 47.7585 18.9128C47.7573 18.926 47.7548 18.938 47.7536 18.9512C47.7412 19.0375 47.6635 19.1203 47.5969 19.1718C47.5179 19.2306 47.4352 19.2557 47.3328 19.2617C47.1008 19.2737 46.8589 19.2869 46.6195 19.2701C46.6195 19.2701 46.4628 19.2342 46.2394 19.161H46.2382C46.2344 19.1838 46.2283 19.2102 46.2196 19.2354H46.2209C46.306 19.2869 46.3714 19.3241 46.4233 19.3529C46.2628 19.5015 46.1925 19.8001 46.4405 19.8193C46.5096 19.8241 46.5775 19.8193 46.6454 19.8061C46.9268 19.7617 47.1933 19.613 47.4833 19.691C47.5117 19.6982 47.5401 19.7066 47.5709 19.7197C47.6709 19.7605 47.7931 19.8372 47.8289 19.9475C47.8572 20.0387 47.7992 20.1166 47.7141 20.1526C47.64 20.1837 47.5611 20.1933 47.4796 20.1969C47.4426 20.2041 47.4043 20.2101 47.3686 20.2137C47.2908 20.2209 47.2118 20.2209 47.1328 20.2221C47.0292 20.2461 46.9342 20.2941 46.8416 20.3504C46.5849 20.5063 46.348 20.6969 46.1036 20.872C45.8605 21.0446 45.6038 21.2281 45.3188 21.3372C45.2682 21.3564 45.2164 21.3719 45.1633 21.3815C45.1287 21.3815 45.0917 21.3731 45.0559 21.3588C44.6832 21.2161 44.2427 20.4295 44.2044 20.3624C44.2168 20.4092 44.3278 20.7952 44.6314 21.1597C44.2575 20.9487 43.5627 21.0446 43.5627 21.0446C44.3068 21.077 44.6882 21.3683 44.8733 21.5961C44.8832 21.6549 44.8906 21.7137 44.8918 21.7736C44.9029 21.9283 44.898 22.0853 44.8782 22.2376C44.8597 22.3851 44.8276 22.5302 44.7783 22.6728C44.7215 22.8311 44.6425 22.9786 44.5426 23.1129C44.4932 23.1824 44.4389 23.2471 44.3772 23.3059C44.3525 23.3311 44.2427 23.4078 44.2637 23.4138C44.3686 23.4426 44.524 23.5385 44.624 23.6068C44.7548 23.6224 44.8832 23.6428 45.0127 23.6656C45.1534 23.6884 45.2879 23.7531 45.3842 23.8838H51.3311L51.3077 23.8502C51.4632 23.8454 51.6211 23.8358 51.7803 23.8239C56.8622 23.4785 59.9893 21.2341 59.9893 16.1935V9.97801C59.8832 6.59449 57.2534 4.9375 52.0654 4.9375ZM55.4048 15.9861C55.4048 18.5759 53.8066 20.095 51.1769 20.095C49.6837 20.095 48.9025 19.4044 48.7951 17.9536C48.7951 16.6072 49.7552 15.7439 51.6384 15.3986C53.0242 15.1229 54.304 14.7428 55.4048 14.2944V15.9861Z"
            fill="#191717" />
        <path
            d="M40.7448 23.8838L40.8608 23.9953C40.8916 23.9953 40.92 23.9965 40.9484 23.9965C41.0681 23.9977 41.189 23.9989 41.3087 24.0001L41.1471 23.8838L41.0743 23.8322C40.8879 23.8035 40.7225 23.7531 40.5732 23.6812C40.5942 23.71 40.6177 23.7459 40.6547 23.7975L40.7448 23.8838Z"
            fill="#191717" />
        <path
            d="M46.7069 18.1932C46.7069 18.1932 46.7155 18.198 46.7205 18.198C46.7982 18.234 47.0426 18.282 47.0426 18.282C47.0426 18.282 47.045 18.2184 47.0093 18.1393C47.0055 18.1297 47.0018 18.1213 46.9969 18.1117C46.992 18.1009 46.987 18.0913 46.9809 18.0805C46.9809 18.0781 46.9796 18.0769 46.9784 18.0745C46.9747 18.0685 46.9698 18.0614 46.9648 18.0554C46.9599 18.0494 46.955 18.0422 46.9488 18.0362C46.9401 18.0254 46.929 18.0158 46.9167 18.0062C46.8784 17.9678 46.8229 17.9319 46.7513 17.9031C46.5823 17.8371 46.5181 17.8395 46.4971 17.8551L46.6687 17.9498C46.681 17.9546 46.6884 17.9606 46.6933 17.963C46.6094 18.0374 46.6575 18.1561 46.7081 18.1932H46.7069Z"
            fill="#191717" />
        <path
            d="M16.1242 5.82705H10.4796L4.69313 12.2716V2.22771C4.69313 1.02873 3.67009 0 2.4348 0H0V23.3106H4.69313V16.6946C4.69313 16.2138 4.93994 15.9057 5.43357 15.8026C6.03332 15.8026 6.63307 16.3169 7.23283 17.3457L10.55 23.3106H16.1946L9.66763 12.5461L16.1242 5.82705Z"
            fill="#191717" />
    </g>
</svg>