<svg width="776" height="568" viewBox="0 0 776 568" fill="none" xmlns="http://www.w3.org/2000/svg">
    <g filter="url(#filter0_d_134_1227)">
        <path fill-rule="evenodd" clip-rule="evenodd"
            d="M388 60C415.663 60 438.953 41.2797 445.893 15.8166C448.217 7.29107 455.163 0 464 0H756C764.837 0 772 7.16344 772 16V544C772 552.837 764.837 560 756 560H20C11.1634 560 4 552.837 4 544V16C4 7.16344 11.1634 0 20 0H312C320.837 0 327.783 7.29107 330.107 15.8166C337.047 41.2797 360.337 60 388 60Z"
            fill="white" />
    </g>
    <defs>
        <filter id="filter0_d_134_1227" x="0" y="0" width="776" height="568"
            filterUnits="userSpaceOnUse" color-interpolation-filters="sRGB">
            <feFlood flood-opacity="0" result="BackgroundImageFix" />
            <feColorMatrix in="SourceAlpha" type="matrix"
                values="0 0 0 0 0 0 0 0 0 0 0 0 0 0 0 0 0 0 127 0" result="hardAlpha" />
            <feOffset dy="4" />
            <feGaussianBlur stdDeviation="2" />
            <feComposite in2="hardAlpha" operator="out" />
            <feColorMatrix type="matrix" values="0 0 0 0 0 0 0 0 0 0 0 0 0 0 0 0 0 0 0.25 0" />
            <feBlend mode="normal" in2="BackgroundImageFix" result="effect1_dropShadow_134_1227" />
            <feBlend mode="normal" in="SourceGraphic" in2="effect1_dropShadow_134_1227"
                result="shape" />
        </filter>
    </defs>
</svg>
    